<?xml version="1.0" standalone="no"?>
<!DOCTYPE svg PUBLIC "-//W3C//DTD SVG 20010904//EN"
 "http://www.w3.org/TR/2001/REC-SVG-20010904/DTD/svg10.dtd">
<svg version="1.0" xmlns="http://www.w3.org/2000/svg"
 width="500.000000pt" height="500.000000pt" viewBox="0 0 500.000000 500.000000"
 preserveAspectRatio="xMidYMid meet">

<g transform="translate(0.000000,500.000000) scale(0.100000,-0.100000)"
fill="#000000" stroke="none">
<path d="M354 4653 c3 -10 12 -46 21 -81 25 -101 115 -361 151 -441 44 -96 95
-161 170 -219 33 -26 356 -215 717 -421 361 -206 655 -376 653 -378 -2 -2
-116 50 -252 116 -378 182 -737 373 -1033 550 -85 50 -155 90 -157 88 -5 -4
254 -468 283 -505 34 -45 94 -87 157 -110 28 -11 258 -54 511 -97 253 -42 462
-79 465 -82 15 -17 -424 23 -779 70 -164 22 -237 29 -228 20 65 -64 340 -289
366 -300 63 -27 107 -19 391 72 151 48 282 90 290 92 8 3 -31 -18 -87 -45
-142 -70 -237 -134 -309 -207 -101 -103 -110 -179 -33 -289 37 -53 153 -205
222 -290 l24 -29 -14 79 c-19 107 -12 285 16 382 38 129 122 272 214 360 l35
34 -54 -105 c-97 -189 -154 -398 -140 -517 8 -68 44 -145 90 -189 l35 -34 -41
-58 c-79 -113 -223 -240 -378 -335 l-65 -39 95 -3 c125 -4 165 3 227 38 64 37
121 110 183 235 40 81 48 92 64 83 23 -13 17 -38 -40 -151 -55 -110 -109 -190
-191 -284 -35 -40 -63 -75 -63 -79 0 -14 104 8 150 31 94 48 150 147 188 337
l18 87 100 -92 c55 -51 107 -98 117 -106 9 -7 -10 42 -42 110 -143 298 -228
675 -219 962 l3 98 99 -328 c118 -390 203 -654 214 -665 4 -4 75 214 156 485
82 270 153 499 157 507 12 21 11 -72 -1 -226 -25 -316 -92 -568 -225 -851
l-53 -113 131 122 c138 128 144 130 146 57 1 -42 40 -178 70 -243 32 -71 79
-122 136 -147 43 -19 145 -36 145 -24 0 4 -27 37 -61 73 -98 108 -195 264
-244 395 -17 46 -17 48 0 61 18 13 23 5 78 -106 44 -90 73 -134 116 -177 76
-78 121 -93 272 -89 l114 3 -100 62 c-161 99 -272 203 -374 351 l-23 33 26 34
c56 73 70 121 70 240 0 101 -3 119 -37 220 -21 60 -64 163 -97 228 -32 65 -54
117 -47 115 23 -8 144 -168 177 -235 75 -154 95 -258 87 -440 -3 -70 -9 -139
-12 -153 -6 -23 -4 -22 25 10 65 72 237 307 248 340 31 86 7 154 -84 240 -80
76 -108 95 -259 173 -71 37 -116 64 -100 60 49 -10 353 -107 450 -143 107 -39
159 -41 220 -8 45 24 370 297 362 304 -2 2 -28 0 -58 -6 -208 -37 -794 -101
-909 -99 l-55 1 65 14 c36 7 216 38 400 68 559 92 569 95 652 184 40 43 316
518 306 527 -2 2 -62 -31 -134 -74 -277 -167 -656 -369 -984 -526 -248 -119
-290 -138 -290 -131 0 7 747 436 1065 611 204 113 263 153 335 227 94 96 141
203 255 583 15 50 30 96 32 103 14 35 -21 2 -79 -75 -130 -173 -307 -352 -478
-482 -130 -100 -245 -172 -650 -410 -447 -263 -471 -282 -539 -424 -22 -45
-47 -108 -57 -139 -10 -32 -21 -58 -25 -58 -4 0 -17 15 -28 34 -40 64 -53 118
-55 226 -3 115 -18 161 -73 211 -88 83 -251 110 -314 53 -10 -9 -42 -21 -70
-25 -60 -10 -99 -40 -99 -79 0 -24 3 -25 39 -22 24 2 54 -3 76 -14 99 -47 98
-228 -1 -328 -28 -27 -94 -66 -112 -66 -5 0 -24 42 -42 93 -17 50 -46 117 -63
147 -49 87 -147 177 -262 239 -161 88 -661 387 -775 463 -240 162 -464 376
-638 611 -44 59 -57 70 -48 40z m2109 -1113 c9 0 17 -4 17 -10 0 -5 -18 -10
-40 -10 -30 0 -40 4 -40 16 0 12 6 15 23 10 12 -3 30 -6 40 -6z"/>
<path d="M2284 1935 c3 -11 14 -45 25 -75 23 -62 25 -99 11 -151 -30 -109
-214 -308 -393 -424 l-107 -70 117 -3 c143 -3 179 8 245 76 110 111 215 350
205 465 -5 59 -32 114 -82 172 -20 23 -25 25 -21 10z"/>
<path d="M2682 1918 c-48 -50 -76 -123 -76 -193 2 -107 96 -319 188 -422 68
-75 123 -96 269 -101 64 -2 117 0 117 4 0 5 -42 34 -93 66 -170 103 -327 260
-394 392 -35 68 -35 139 0 224 14 34 25 62 23 62 -1 0 -16 -15 -34 -32z"/>
<path d="M2554 1561 c12 -169 61 -336 120 -414 38 -50 134 -97 199 -97 l49 0
-64 69 c-110 115 -210 284 -268 451 -35 100 -43 98 -36 -9z"/>
<path d="M2395 1553 c-95 -223 -169 -345 -264 -438 -28 -27 -51 -53 -51 -59 0
-14 104 0 146 20 83 39 135 118 179 271 24 80 47 293 33 293 -3 0 -22 -39 -43
-87z"/>
<path d="M2490 1488 c0 -4 -16 -80 -36 -170 -45 -207 -45 -291 1 -383 17 -32
35 -61 41 -62 6 -2 26 29 44 69 46 98 46 163 1 373 -19 88 -38 164 -43 170 -4
5 -8 6 -8 3z"/>
</g>
</svg>
